
        <svg xmlns="http://www.w3.org/2000/svg" xmlns:xlink="http://www.w3.org/1999/xlink" version="1.1" width="3162.2246272251195" height="739.678894385941" viewBox="0 0 3162.2246272251195 739.678894385941">
			
			<g transform="scale(8.111231361255975) translate(10, 10)">
				<defs id="SvgjsDefs7974"/><g id="SvgjsG7975" featureKey="symbolFeature-0" transform="matrix(1.4065855405718373,0,0,1.4065855405718373,-8.439513243431023,-8.437681528270987)" fill="#000"><title xmlns="http://www.w3.org/2000/svg">strong-gym-wellness-heart-fitness</title><g xmlns="http://www.w3.org/2000/svg"><path d="M38.276,17.223a9,9,0,1,0,6.5-10.946,9.015,9.015,0,0,0-6.5,10.946Zm4.421-4.78a5,5,0,1,1,5.536,7.4A5.041,5.041,0,0,1,46.988,20,5,5,0,0,1,42.7,12.443Z"/><path d="M44.091,15.736A3,3,0,1,0,47,11.993a3.028,3.028,0,0,0-.747.094,3,3,0,0,0-2.165,3.649Z"/><path d="M57.945,20.87c-.013-.167-.02-.263-.034-.351-.015-.182-.029-.278-.043-.372L57.848,20c-.035-.221-.081-.457-.128-.693-.07-.331-.156-.657-.252-.982a11.039,11.039,0,0,1-4.415,5.844l1.5,1A1,1,0,0,1,55,26v2H53V26.535l-1.97-1.313a11.152,11.152,0,0,1-1.313.434A10.968,10.968,0,0,1,47,26v1a1,1,0,0,1-.629.929l-9.05,3.62c-.43.172-.86.363-1.28.563a23.307,23.307,0,0,0-8.26,6.513l-1.562-1.25A25.327,25.327,0,0,1,34.7,30.55l-.352-.5a9.266,9.266,0,0,0-8.965-3.806l-1.145.176-.3-1.977,1.144-.175a11.224,11.224,0,0,1,5.44.531c.284-.732.52-2.351-.094-5.869a11.8,11.8,0,0,0-9.368-9.757,2.894,2.894,0,0,0-.434-.067l-.794-.081C19.563,9.009,19.286,9,19,9A13,13,0,0,0,6,22a22.657,22.657,0,0,0,6.9,16.22L32,56.612,51.106,38.22A22.6,22.6,0,0,0,58,22,11.269,11.269,0,0,0,57.945,20.87ZM17.763,26.707a1,1,0,0,1-1.414,0L11.9,22.26A6.454,6.454,0,0,1,10,17.669a3.569,3.569,0,0,1,6.093-2.523l.963.962.963-.962a3.568,3.568,0,0,1,6.092,2.523,6.448,6.448,0,0,1-1.9,4.591Z"/><path d="M20.542,16.1a1.558,1.558,0,0,0-1.109.459l-1.67,1.67a1,1,0,0,1-1.414,0l-1.67-1.669A1.569,1.569,0,0,0,12,17.669a4.474,4.474,0,0,0,1.315,3.178l3.741,3.739,3.739-3.74a4.463,4.463,0,0,0,1.316-3.177A1.571,1.571,0,0,0,20.542,16.1Z"/></g></g><g id="SvgjsG7976" featureKey="nameFeature-0" transform="matrix(2.2156943744562567,0,0,2.2156943744562567,87.806866468217,-21.5709230677862)" fill="#000"><path d="M19.453 17.5 l-14.355 0 q-1.15234375 0 -1.953125 -0.80078125 t-0.80078 -1.9531 q0 -1.1328125 0.80078125 -1.943359375 t1.9531 -0.81055 l14.355 0 q1.1328125 0 1.943359375 0.810546875 t0.81055 1.9434 q0 1.15234375 -0.810546875 1.953125 t-1.9434 0.80078 z M5.0977 40 q-1.15234375 0 -1.953125 -0.810546875 t-0.80078 -1.9434 l0 -11.25 q0 -1.1328125 0.80078125 -1.943359375 t1.9531 -0.81055 l14.355 0 q1.1328125 0 1.943359375 0.810546875 t0.81055 1.9434 q0 1.15234375 -0.810546875 1.953125 t-1.9434 0.80078 l-11.602 0 l0 8.4961 q0 1.1328125 -0.810546875 1.943359375 t-1.9434 0.81055 z M27.49223125 40 q1.1328125 0 1.943359375 -0.810546875 t0.81055 -1.9434 l0 -22.5 q0 -1.1328125 -0.810546875 -1.943359375 t-1.9434 -0.81055 q-1.15234375 0 -1.953125 0.810546875 t-0.80078 1.9434 l0 22.5 q0 1.1328125 0.80078125 1.943359375 t1.9531 0.81055 z M42.56253125 40 q-1.15234375 0 -1.953125 -0.810546875 t-0.80078 -1.9434 l0 -22.5 q0 -1.1328125 0.80078125 -1.943359375 t1.9531 -0.81055 l7.8125 0 q1.1328125 0 1.943359375 0.810546875 t0.81055 1.9434 q0 1.15234375 -0.810546875 1.953125 t-1.9434 0.80078 l-5.0586 0 l0 19.746 q0 1.1328125 -0.810546875 1.943359375 t-1.9434 0.81055 z M34.75003125 17.5 q-1.15234375 0 -1.953125 -0.80078125 t-0.80078 -1.9531 q0 -1.1328125 0.80078125 -1.943359375 t1.9531 -0.81055 q1.1328125 0 1.943359375 0.810546875 t0.81055 1.9434 q0 1.15234375 -0.810546875 1.953125 t-1.9434 0.80078 z M70.73815625 40 q1.15234375 0 1.953125 -0.810546875 t0.80078 -1.9434 t-0.80078 -1.9434 t-1.9531 -0.81055 l-7.3438 0 q-1.0546875 0 -1.5625 -0.33203125 q-1.640625 -1.09375 -1.640625 -4.66796875 l0 -14.746 q0 -1.1328125 -0.810546875 -1.943359375 t-1.9434 -0.81055 q-1.15234375 0 -1.953125 0.810546875 t-0.80078 1.9434 l0 14.746 q0 4.86328125 2.34375 7.685546875 t6.3672 2.8223 l7.3438 0 z M79.1680125 40 q1.1328125 0 1.943359375 -0.810546875 t0.81055 -1.9434 l0 -22.5 q0 -1.1328125 -0.810546875 -1.943359375 t-1.9434 -0.81055 q-1.15234375 0 -1.953125 0.810546875 t-0.80078 1.9434 l0 22.5 q0 1.1328125 0.80078125 1.943359375 t1.9531 0.81055 z M102.1483125 17.5 l-14.355 0 q-1.15234375 0 -1.953125 -0.80078125 t-0.80078 -1.9531 q0 -1.1328125 0.80078125 -1.943359375 t1.9531 -0.81055 l14.355 0 q1.1328125 0 1.943359375 0.810546875 t0.81055 1.9434 q0 1.15234375 -0.810546875 1.953125 t-1.9434 0.80078 z M87.7930125 40 q-1.15234375 0 -1.953125 -0.810546875 t-0.80078 -1.9434 l0 -11.25 q0 -1.1328125 0.80078125 -1.943359375 t1.9531 -0.81055 l14.355 0 q1.1328125 0 1.943359375 0.810546875 t0.81055 1.9434 q0 1.15234375 -0.810546875 1.953125 t-1.9434 0.80078 l-11.602 0 l0 8.4961 q0 1.1328125 -0.810546875 1.943359375 t-1.9434 0.81055 z M124.54284375 40 l-14.355 0 q-1.15234375 0 -1.953125 -0.810546875 t-0.80078 -1.9434 t0.80078 -1.9434 t1.9531 -0.81055 l14.355 0 q1.1328125 0 1.943359375 0.810546875 t0.81055 1.9434 t-0.81055 1.9434 t-1.9434 0.81055 z M124.54284375 17.5 l-14.355 0 q-1.15234375 0 -1.953125 -0.80078125 t-0.80078 -1.9531 q0 -1.1328125 0.80078125 -1.943359375 t1.9531 -0.81055 l14.355 0 q1.1328125 0 1.943359375 0.810546875 t0.81055 1.9434 q0 1.15234375 -0.810546875 1.953125 t-1.9434 0.80078 z M124.54284375 28.75 l-14.355 0 q-1.15234375 0 -1.953125 -0.80078125 t-0.80078 -1.9531 q0 -1.1328125 0.80078125 -1.943359375 t1.9531 -0.81055 l14.355 0 q1.1328125 0 1.943359375 0.810546875 t0.81055 1.9434 q0 1.15234375 -0.810546875 1.953125 t-1.9434 0.80078 z"/></g>
			</g>
		</svg>
	